<?xml version="1.0" standalone="no"?>
<!DOCTYPE svg PUBLIC "-//W3C//DTD SVG 20010904//EN"
 "http://www.w3.org/TR/2001/REC-SVG-20010904/DTD/svg10.dtd">
<svg version="1.0" xmlns="http://www.w3.org/2000/svg"
 width="2084.000000pt" height="2084.000000pt" viewBox="0 0 2084.000000 2084.000000"
 preserveAspectRatio="xMidYMid meet">
<metadata>
Created by potrace 1.14, written by Peter Selinger 2001-2017
</metadata>
<g transform="translate(0.000000,2084.000000) scale(0.100000,-0.100000)"
fill="#000000" stroke="none">
<path d="M6013 12902 c-193 -198 -464 -476 -565 -578 l-60 -62 40 -88 c22 -49
59 -129 82 -179 23 -49 52 -112 65 -140 13 -27 44 -95 70 -150 26 -55 69 -149
97 -210 27 -60 66 -144 85 -185 36 -76 78 -166 128 -275 15 -33 42 -91 60
-130 39 -83 69 -148 225 -485 65 -140 132 -286 150 -325 18 -38 44 -95 58
-125 14 -30 55 -120 92 -200 37 -80 82 -176 100 -215 18 -38 54 -117 81 -174
27 -57 49 -105 49 -108 0 -2 27 -61 60 -130 33 -69 60 -127 60 -129 0 -2 29
-65 65 -140 36 -75 65 -138 65 -139 0 -2 18 -41 39 -87 95 -202 130 -278 162
-348 18 -41 45 -99 59 -128 l25 -53 237 243 c130 134 306 315 392 402 85 88
154 162 152 165 -2 3 -20 41 -40 83 -20 43 -74 155 -120 250 -46 95 -108 225
-139 288 -105 221 -175 366 -240 500 -35 74 -91 189 -122 255 -32 66 -89 185
-127 265 -39 80 -94 195 -123 255 -29 61 -92 191 -139 290 -48 99 -117 243
-154 320 -37 76 -88 182 -113 235 -26 52 -45 97 -43 99 3 3 199 -85 559 -249
33 -16 150 -68 260 -118 110 -49 229 -103 265 -120 36 -16 155 -70 265 -120
110 -49 232 -104 270 -122 39 -18 135 -61 215 -97 80 -36 170 -76 200 -90 204
-93 608 -276 625 -283 11 -4 64 -28 118 -54 l98 -46 188 193 c424 432 586 599
589 606 1 4 -26 20 -60 35 -35 15 -81 36 -103 46 -22 10 -105 46 -185 80 -80
35 -165 72 -190 83 -56 24 -75 33 -225 97 -66 29 -138 60 -160 70 -39 17 -308
134 -705 307 -107 46 -208 90 -225 97 -16 8 -64 28 -105 46 -41 18 -95 41
-119 52 -24 11 -132 58 -240 105 -267 115 -418 181 -466 203 -22 9 -141 61
-265 115 -124 54 -243 105 -265 115 -22 10 -125 55 -230 100 -104 45 -203 88
-220 96 -164 74 -400 174 -409 174 -6 0 -93 -84 -193 -188z"/>
<path d="M12533 11930 c0 -308 1 -560 2 -560 1 0 40 -14 86 -31 46 -17 104
-37 129 -46 25 -8 104 -37 175 -63 72 -27 238 -87 370 -135 132 -47 263 -95
290 -105 41 -16 465 -170 660 -241 142 -51 267 -96 535 -194 162 -59 324 -118
360 -131 385 -139 367 -131 335 -144 -55 -23 -70 -28 -145 -55 -41 -15 -82
-29 -90 -32 -8 -4 -17 -7 -20 -7 -3 -1 -36 -14 -75 -28 -68 -26 -741 -271
-955 -348 -58 -21 -262 -95 -455 -165 -192 -70 -372 -136 -400 -146 -27 -10
-212 -77 -410 -149 -198 -73 -367 -134 -376 -137 -15 -4 -16 -57 -16 -564 -1
-603 -4 -567 47 -546 22 9 434 165 520 197 41 15 246 93 455 173 209 79 549
209 755 287 206 77 384 145 395 150 22 10 334 130 350 134 6 2 17 6 25 9 8 4
94 36 190 72 96 36 191 72 210 80 28 11 1065 405 1105 419 6 2 13 5 17 6 4 1
49 19 100 39 l93 37 1 583 0 583 -30 14 c-17 7 -170 65 -341 129 -170 64 -319
121 -330 126 -21 9 -405 155 -510 194 -33 12 -222 84 -420 159 -198 76 -461
176 -585 223 -124 46 -252 95 -285 108 -49 20 -640 244 -1425 542 -80 30 -184
70 -232 89 -49 19 -92 34 -97 34 -4 0 -8 -248 -8 -560z"/>
<path d="M11019 10539 c-151 -155 -323 -332 -384 -394 -60 -62 -258 -265 -440
-450 -181 -185 -374 -383 -429 -439 -54 -55 -244 -249 -421 -431 -178 -181
-373 -382 -435 -445 -62 -63 -257 -263 -434 -444 -176 -181 -365 -374 -420
-430 l-98 -101 158 -154 c88 -84 260 -252 384 -373 124 -121 248 -242 276
-270 l50 -49 136 138 c75 76 180 183 234 239 55 56 253 258 440 450 188 192
384 392 435 445 52 53 243 248 424 434 182 186 377 386 435 445 58 59 249 255
425 435 176 179 366 375 423 433 57 59 167 172 245 250 l142 144 -216 211
c-534 524 -651 637 -653 637 -1 0 -126 -127 -277 -281z"/>
</g>
</svg>
